#!Matlab matrix to amc conversion
:FULLY-SPECIFIED
:DEGREES
29
root 0.096632 0.564480 12.033639 8.965021 -1.351712 3.251931
lowerback -2.507707 -0.811579 -5.931013
upperback -0.036455 -0.900653 2.197699
thorax 1.466041 -0.492366 5.581794
lowerneck -21.388893 -3.435646 -11.615996
upperneck 19.175043 -3.662464 11.802957
head 10.049810 -1.212879 5.581709
rclavicle 0.000000 -0.000000
rhumerus -29.336986 22.401852 -82.444648
rradius 34.116983
rwrist -13.081739
rhand -28.856200 -18.800500
rfingers 7.125020
rthumb -2.212790 -48.768800
lclavicle 0.000000 -0.000000
lhumerus -31.433852 -10.797714 84.582222
lradius 22.370644
lwrist -2.931483
lhand -19.668800 -28.799300
lfingers 7.125020
lthumb 6.659510 1.076010
rfemur -34.339782 -4.591044 20.388564
rtibia 65.871813
rfoot -20.955423 -11.466335
rtoes -20.766800
lfemur -20.160881 -2.380480 -26.112137
ltibia 33.643435
lfoot -20.431725 5.211355
ltoes -22.051700
30
root 0.119913 0.547554 12.529981 9.147727 -1.231161 3.154772
lowerback -2.487210 -0.856498 -5.883150
upperback 0.002735 -0.963358 2.212718
thorax 1.503063 -0.525206 5.566842
lowerneck -21.381722 -3.483850 -11.600354
upperneck 19.116681 -3.736684 11.802566
head 10.033294 -1.244847 5.564903
rclavicle 0.000000 -0.000000
rhumerus -29.662080 22.343060 -82.466831
rradius 34.296424
rwrist -13.288999
rhand -28.856200 -18.800500
rfingers 7.125020
rthumb -2.212790 -48.768800
lclavicle 0.000000 -0.000000
lhumerus -31.111779 -11.230007 84.771589
lradius 22.455355
lwrist -2.554539
lhand -19.668800 -28.799300
lfingers 7.125020
lthumb 6.659510 1.076010
rfemur -34.705979 -4.637372 20.525207
rtibia 65.750912
rfoot -21.097290 -11.362490
rtoes -20.766800
lfemur -20.277812 -2.463543 -26.038236
ltibia 33.795884
lfoot -20.572817 5.139434
ltoes -22.051700
31
root 0.144109 0.531138 13.033339 9.325022 -1.048176 3.036133
lowerback -2.479046 -0.916381 -5.795487
upperback 0.042098 -1.047379 2.226347
thorax 1.549852 -0.568819 5.526363
lowerneck -21.389234 -3.530330 -11.566521
upperneck 19.065859 -3.807548 11.771913
head 10.021641 -1.276661 5.534775
rclavicle 0.000000 -0.000000
rhumerus -30.078677 22.223359 -82.487295
rradius 34.554551
rwrist -13.562429
rhand -28.856200 -18.800500
rfingers 7.125020
rthumb -2.212790 -48.768800
lclavicle 0.000000 -0.000000
lhumerus -30.716735 -11.797309 85.024942
lradius 22.594919
lwrist -2.020051
lhand -19.668800 -28.799300
lfingers 7.125020
lthumb 6.659510 1.076010
rfemur -35.104745 -4.710727 20.648967
rtibia 65.634337
rfoot -21.193100 -11.252162
rtoes -20.766800
lfemur -20.302368 -2.526458 -25.963269
ltibia 33.827503
lfoot -20.679118 5.004431
ltoes -22.051700
32
root 0.169382 0.514825 13.542164 9.488186 -0.807451 2.904058
lowerback -2.471949 -0.997400 -5.673809
upperback 0.083731 -1.161252 2.240729
thorax 1.603025 -0.627429 5.465521
lowerneck -21.415522 -3.570656 -11.518974
upperneck 19.023092 -3.867266 11.713246
head 10.015020 -1.304797 5.494235
rclavicle 0.000000 -0.000000
rhumerus -30.638582 22.053577 -82.506311
rradius 34.876695
rwrist -13.903072
rhand -28.856200 -18.800500
rfingers 7.125020
rthumb -2.212790 -48.768800
lclavicle 0.000000 -0.000000
lhumerus -30.223082 -12.647543 85.372252
lradius 22.879557
lwrist -1.219778
lhand -19.668800 -28.799300
lfingers 7.125020
lthumb 6.659510 1.076010
rfemur -35.587424 -4.788886 20.761546
rtibia 65.400109
rfoot -21.279942 -11.124710
rtoes -20.766800
lfemur -20.169634 -2.581968 -25.897306
ltibia 33.724595
lfoot -20.795373 4.829452
ltoes -22.051700
33
root 0.195644 0.497876 14.054630 9.637664 -0.534581 2.773076
lowerback -2.454964 -1.100272 -5.538056
upperback 0.129909 -1.305549 2.257398
thorax 1.658503 -0.701313 5.397402
lowerneck -21.449833 -3.599949 -11.469428
upperneck 18.974099 -3.908197 11.640569
head 10.005587 -1.325348 5.451086
rclavicle 0.000000 -0.000000
rhumerus -31.355774 21.860365 -82.518599
rradius 35.233157
rwrist -14.298491
rhand -28.856200 -18.800500
rfingers 7.125020
rthumb -2.212790 -48.768800
lclavicle 0.000000 -0.000000
lhumerus -29.629955 -13.849099 85.797441
lradius 23.368855
lwrist -0.136545
lhand -19.668800 -28.799300
lfingers 7.125020
lthumb 6.659510 1.076010
rfemur -36.188671 -4.843459 20.866192
rtibia 64.938476
rfoot -21.400123 -10.979513
rtoes -20.766800
lfemur -19.862085 -2.650160 -25.849845
ltibia 33.514515
lfoot -20.970458 4.656134
ltoes -22.051700
34
root 0.222538 0.479532 14.569355 9.782672 -0.265700 2.659103
lowerback -2.422122 -1.218707 -5.414253
upperback 0.179596 -1.470932 2.276740
thorax 1.710531 -0.785721 5.337968
lowerneck -21.471376 -3.616090 -11.433575
upperneck 18.899224 -3.927747 11.575753
head 9.982383 -1.336371 5.415620
rclavicle 0.000000 0.000000
rhumerus -32.202155 21.669317 -82.513940
rradius 35.582777
rwrist -14.718151
rhand -28.856200 -18.800500
rfingers 7.125020
rthumb -2.212790 -48.768800
lclavicle 0.000000 0.000000
lhumerus -28.954801 -15.372454 86.244476
lradius 24.075072
lwrist 1.148087
lhand -19.668800 -28.799300
lfingers 7.125020
lthumb 6.659510 1.076010
rfemur -36.916804 -4.845901 20.964898
rtibia 64.182325
rfoot -21.585620 -10.831987
rtoes -20.766800
lfemur -19.412054 -2.749293 -25.825340
ltibia 33.252783
lfoot -21.237469 4.528331
ltoes -22.051700
35
root 0.249566 0.459431 15.086093 9.938456 -0.033859 2.571561
lowerback -2.372397 -1.340887 -5.321402
upperback 0.226766 -1.640754 2.298559
thorax 1.750456 -0.872058 5.299029
lowerneck -21.459327 -3.622731 -11.427345
upperneck 18.784045 -3.932109 11.541563
head 9.937496 -1.339843 5.397292
rclavicle 0.000000 0.000000
rhumerus -33.132500 21.488588 -82.479527
rradius 35.883984
rwrist -15.122777
rhand -28.856200 -18.800500
rfingers 7.125020
rthumb -2.212790 -48.768800
lclavicle 0.000000 0.000000
lhumerus -28.218260 -17.134372 86.649832
lradius 24.977550
lwrist 2.514387
lhand -19.668800 -28.799300
lfingers 7.125020
lthumb 6.659510 1.076010
rfemur -37.761731 -4.769691 21.058558
rtibia 63.112641
rfoot -21.849136 -10.712405
rtoes -20.766800
lfemur -18.880301 -2.884550 -25.820828
ltibia 32.997325
lfoot -21.604483 4.475183
ltoes -22.051700
36
root 0.276314 0.437857 15.606187 10.121360 0.142489 2.509520
lowerback -2.306359 -1.455651 -5.262593
upperback 0.262891 -1.799917 2.322952
thorax 1.768478 -0.952382 5.283549
lowerneck -21.400089 -3.627439 -11.464242
upperneck 18.619653 -3.932285 11.554265
head 9.867007 -1.340256 5.402269
rclavicle 0.000000 0.000000
rhumerus -34.128584 21.304320 -82.401906
rradius 36.112957
rwrist -15.489008
rhand -28.856200 -18.800500
rfingers 7.125020
rthumb -2.212790 -48.768800
lclavicle 0.000000 0.000000
lhumerus -27.423856 -19.084659 86.974144
lradius 26.067054
lwrist 3.898859
lhand -19.668800 -28.799300
lfingers 7.125020
lthumb 6.659510 1.076010
rfemur -38.718410 -4.589165 21.145475
rtibia 61.721415
rfoot -22.184667 -10.655272
rtoes -20.766800
lfemur -18.307615 -3.042523 -25.829962
ltibia 32.769140
lfoot -22.060000 4.502858
ltoes -22.051700
